inDegrees=no
num_controls=7
num_derivatives=13
num_iterations=156
num_multipliers=7
num_parameters=0
num_slacks=7
num_states=26
objective=0.494314
objective_accelerations=0.011211
objective_balance=0.003957
objective_effort=0.017202
objective_height=0.361005
objective_ligament=0.100939
solver_duration=1950.688926
status=Solve_Succeeded
success=true
DataType=double
version=3
OpenSimVersion=4.5
endheader
time	/jointset/ground_pelvis/pelvis_tilt/value	/jointset/ground_pelvis/pelvis_tx/value	/jointset/ground_pelvis/pelvis_ty/value	/jointset/hip_l/hip_flexion_l/value	/jointset/hip_l/hip_adduction_l/value	/jointset/hip_l/hip_rotation_l/value	/jointset/back/lumbar_extension/value	/jointset/patellofemoral_l/patellar_flexion_l/value	/jointset/knee_l/knee_flexion_l/value	/jointset/knee_l/knee_adduction_l/value	/jointset/knee_l/knee_rotation_l/value	/jointset/ankle_l/ankle_angle_l/value	/jointset/subtalar_l/subtalar_angle_l/value	/jointset/ground_pelvis/pelvis_tilt/speed	/jointset/ground_pelvis/pelvis_tx/speed	/jointset/ground_pelvis/pelvis_ty/speed	/jointset/hip_l/hip_flexion_l/speed	/jointset/hip_l/hip_adduction_l/speed	/jointset/hip_l/hip_rotation_l/speed	/jointset/back/lumbar_extension/speed	/jointset/patellofemoral_l/patellar_flexion_l/speed	/jointset/knee_l/knee_flexion_l/speed	/jointset/knee_l/knee_adduction_l/speed	/jointset/knee_l/knee_rotation_l/speed	/jointset/ankle_l/ankle_angle_l/speed	/jointset/subtalar_l/subtalar_angle_l/speed	/forceset/tau_hip_flexion_l	/forceset/tau_hip_adduction_l	/forceset/tau_hip_rotation_l	/forceset/tau_knee_flexion_l	/forceset/tau_ankle_angle_l	/forceset/tau_subtalar_angle_l	/forceset/tau_lumbar_extension	lambda_cid13_p0	lambda_cid13_p1	lambda_cid13_p2	lambda_cid13_p3	lambda_cid13_p4	lambda_cid13_p5	lambda_cid14_p0	/jointset/ground_pelvis/pelvis_tilt/accel	/jointset/ground_pelvis/pelvis_tx/accel	/jointset/ground_pelvis/pelvis_ty/accel	/jointset/hip_l/hip_flexion_l/accel	/jointset/hip_l/hip_adduction_l/accel	/jointset/hip_l/hip_rotation_l/accel	/jointset/back/lumbar_extension/accel	/jointset/patellofemoral_l/patellar_flexion_l/accel	/jointset/knee_l/knee_flexion_l/accel	/jointset/knee_l/knee_adduction_l/accel	/jointset/knee_l/knee_rotation_l/accel	/jointset/ankle_l/ankle_angle_l/accel	/jointset/subtalar_l/subtalar_angle_l/accel	gamma_cid13_p0	gamma_cid13_p1	gamma_cid13_p2	gamma_cid13_p3	gamma_cid13_p4	gamma_cid13_p5	gamma_cid14_p0
0	-0.01317174569944489	0.04545907562922258	0.9237689342694968	0.3085816938045678	-0.2541462322399116	-0.3208467194111067	-0.3879492264334186	0.2499269421184978	0.2499269421184919	-0.08723578547029906	-0.1745291592033148	-0.0008036623358878681	0.04388849032310844	0	0	0	0	0	0	0	0	0	0	0	0	0	0.08955062385402519	-0.03375624193111005	-0.01430043397066196	-0.2970770013914311	0.2732319437225001	-0.0450134143384762	0.002321812641708818	40.54890794605048	12.07431401104876	-1.950723981137238	-0.1291358797092959	-653.5578041636868	-57.17746158081604	-22.89506556907662	-0.5116413832108521	-1.560103167827248	-0.426320735227961	4.52776487270362	0.2176830353511041	0.7834889365849477	-6.965644022380288	3.060972652869097	3.060972652868062	1.492731846929688	-0.01870390817350232	-0.5640207248339012	0.005146755495320347	1.804924753756063e-08	3.836493944155778e-08	-2.413423813700752e-08	-1.331246135824487e-08	9.051120058552819e-08	2.488254004401844e-08	7.416731949817388e-09
0.01	-0.01319445687631253	0.04538293438516799	0.9237483105923904	0.3088000644340454	-0.2541360672056412	-0.3208071068998494	-0.3882896456046944	0.2500764502592477	0.2500764502592404	-0.08716399944317615	-0.1745289439862234	-0.0008309335158380783	0.04388833950470066	-0.004388218105740819	-0.01505293751631825	-0.004079266463561985	0.04313038216244534	0.001988277003043388	0.007865070055767399	-0.06717364251384725	0.02969050697132015	0.02969050697132859	0.01419390207567444	3.792764647742445e-05	-0.005317569822435508	-2.472225592829867e-05	0.07537256858161373	-0.03685589792711462	-0.01348949520232534	-0.2804382527589236	0.2511550781913961	-0.03205837349268313	0.0143735079121379	33.95335146335506	7.380471866301889	-0.9484747358708757	1.634134685335258	-657.0100404764546	-65.3783283085732	-22.89694673346	-0.3793104919853581	-1.451595011985979	-0.3918911560155864	4.124114023601876	0.1826862299248807	0.7794070998678005	-6.456695604289691	2.891420059288648	2.891420059290545	1.358228369273162	0.01426825060044002	-0.4951225443736598	-0.005469060011252884	1.432296106831709e-08	4.232908189186926e-08	-1.221868914036582e-08	-5.652953923961481e-09	5.027977208337308e-08	1.503958290418787e-08	8.732542606931399e-09
0.02	-0.01325642992779383	0.04516152257225996	0.923688261939829	0.3094334267122602	-0.2541073621619118	-0.3206905654760769	-0.3892744954487942	0.2505165295377103	0.2505165295377066	-0.08695517259901801	-0.1745285040627981	-0.0009072798806988837	0.04388810399495864	-0.007852374920629495	-0.02905411377068378	-0.007884995091023649	0.08299832974836957	0.003708001891832666	0.01538578250333943	-0.1288861345637889	0.0581142275436457	0.05811422754366322	0.02740816340681804	4.494127463656607e-05	-0.009815036981882049	-1.693826683250662e-05	0.06119451330920093	-0.0399555539230907	-0.01267855643397122	-0.2637995041264354	0.2290782126602897	-0.01910333264686126	0.02642520318256093	27.38338878878722	2.683844627234957	0.05228106243961601	3.426694787311452	-660.0335210499229	-73.54661012507823	-22.90250340607087	-0.3268291250402956	-1.349750915436755	-0.3716131680078944	3.87527795739934	0.163972612500259	0.7146174149458174	-5.873413929599044	2.807615373070206	2.807615373069301	1.29680369802349	-0.02488671183723587	-0.4000001922361549	0.01164800450009774	1.059667459907355e-08	4.629322434218074e-08	-3.031401437241148e-10	2.006553510321903e-09	1.004834358121797e-08	5.19662576435731e-09	1.004835326404541e-08
0.03	-0.01335085387889168	0.0448044911112468	0.9235911078373109	0.3104532500458773	-0.2540628874965074	-0.3205000483328306	-0.3908557966154128	0.2512348851401953	0.2512348851401959	-0.08661924672252122	-0.1745278899443806	-0.00102585784093533	0.04388750087419668	-0.01110603225349309	-0.04226242265872569	-0.01153922474235563	0.1208051826490606	0.005128189697453683	0.02269377927064729	-0.1871418908923473	0.08537376095226516	0.08537376095226423	0.03958630246568317	8.258229830537453e-05	-0.0139023366617438	-0.0001656272367232158	0.06135350751441419	-0.03736905772656932	-0.01277290445740561	-0.2672173226129827	0.2365932051139433	-0.02329055238972124	0.02718946397094743	29.58893612566827	4.184353976353677	-0.2648135535304359	1.405279255610881	-660.7065047235176	-70.412082008157	-22.91155469104053	-0.3356758018614249	-1.292907077341639	-0.3613359160303591	3.709216692144676	0.1222221876940204	0.7353131538164881	-5.766825303996106	2.657650509683559	2.657650509681472	1.149720623061347	0.01879295196811684	-0.4133589210301639	-0.03742609829972821	6.49736984678458e-09	2.691406761804785e-08	8.686157743238214e-09	2.224068696805297e-09	4.729047346413808e-09	7.697781379000045e-10	5.712702541854067e-09
